HIERARCHY
ROOT Hips
{
  OFFSET 57.8838 95.319 338.509
  CHANNELS 6 Xposition Yposition Zposition Zrotation Xrotation Yrotation
  JOINT LeftUpLeg
  {
    OFFSET 8.64259 1.95398 -2.38835
    CHANNELS 3 Zrotation Xrotation Yrotation
    JOINT LeftLeg
    {
      OFFSET 43.7702 0 0
      CHANNELS 3 Zrotation Xrotation Yrotation
      JOINT LeftFoot
      {
        OFFSET 40.6238 0 0
        CHANNELS 3 Zrotation Xrotation Yrotation
        JOINT LeftToeBase
        {
          OFFSET 12.7242 0 0
          CHANNELS 3 Zrotation Xrotation Yrotation
          End Site
          {
            OFFSET 0 0 0
          }
        }
      }
    }
  }
  JOINT RightUpLeg
  {
    OFFSET -8.2249 1.95398 -2.59336
    CHANNELS 3 Zrotation Xrotation Yrotation
    JOINT RightLeg
    {
      OFFSET 43.5653 0 0
      CHANNELS 3 Zrotation Xrotation Yrotation
      JOINT RightFoot
      {
        OFFSET 40.6238 0 0
        CHANNELS 3 Zrotation Xrotation Yrotation
        JOINT RightToeBase
        {
          OFFSET 12.7242 0 0
          CHANNELS 3 Zrotation Xrotation Yrotation
          End Site
          {
            OFFSET 0 0 0
          }
        }
      }
    }
  }
  JOINT Spine
  {
    OFFSET 0.165834 0.87714 6.61349
    CHANNELS 3 Zrotation Xrotation Yrotation
    JOINT Spine1
    {
      OFFSET 7.38963 1.71661e-005 0
      CHANNELS 3 Zrotation Xrotation Yrotation
      JOINT Spine2
      {
        OFFSET 11.9445 1.14441e-005 0
        CHANNELS 3 Zrotation Xrotation Yrotation
        JOINT Spine3
        {
          OFFSET 14.7254 4.19617e-005 0
          CHANNELS 3 Zrotation Xrotation Yrotation
          JOINT Spine4
          {
            OFFSET 10.9679 0 0
            CHANNELS 3 Zrotation Xrotation Yrotation
            JOINT RightShoulder
            {
              OFFSET 2.46616 -1.6653 3.69651
              CHANNELS 3 Zrotation Xrotation Yrotation
              JOINT RightArm
              {
                OFFSET 13.0012 0 0
                CHANNELS 3 Zrotation Xrotation Yrotation
                JOINT RightForeArm
                {
                  OFFSET 28.7848 1.62311e-005 0
                  CHANNELS 3 Zrotation Xrotation Yrotation
                  JOINT RightHand
                  {
                    OFFSET 26.5688 1.62095e-005 0
                    CHANNELS 3 Zrotation Xrotation Yrotation
                    End Site
                    {
                      OFFSET 0 0 0
                    }
                  }
                }
              }
            }
            JOINT LeftShoulder
            {
              OFFSET 2.38034 -1.29275 -3.7523
              CHANNELS 3 Zrotation Xrotation Yrotation
              JOINT LeftArm
              {
                OFFSET 16.3182 6.07031e-005 0
                CHANNELS 3 Zrotation Xrotation Yrotation
                JOINT LeftForeArm
                {
                  OFFSET 27.0901 0 0
                  CHANNELS 3 Zrotation Xrotation Yrotation
                  JOINT LeftHand
                  {
                    OFFSET 24.5451 1.51738e-005 0
                    CHANNELS 3 Zrotation Xrotation Yrotation
                    End Site
                    {
                      OFFSET 0 0 0
                    }
                  }
                }
              }
            }
            JOINT Neck
            {
              OFFSET 5.0226 -0.0266342 0
              CHANNELS 3 Zrotation Xrotation Yrotation
              JOINT Head
              {
                OFFSET 6.69364 2.86102e-005 0
                CHANNELS 3 Zrotation Xrotation Yrotation
                End Site
                {
                  OFFSET 0 0 0
                }
              }
            }
          }
        }
      }
    }
  }
}
MOTION
Frames:	7
Frame Time:	0.0416667
-305.401 76.9032 299.538 99.8407 36.3324 75.8521 -177.035 -12.2372 73.5977 -44.3698 17.6842 3.65351 109.829 24.6837 17.4508 5.23252 -12.9832 10.0211 140.775 -17.4746 19.3126 75.9321 -5.02172 99.4126 19.5648 15.003 -18.4672 48.3207 -16.3139 29.4497 0.183539 3.7862 -89.4169 19.2973 0.67045 1.04933 7.62617 0.715984 1.01881 -14.906 0.324114 1.20229 5.10662 0.324111 1.2023 116.414 -19.0113 -47.5531 88.8683 -51.5872 42.281 150.786 9.63819 -130.731 2.97524 -1.25574 -42.8082 -64.642 -19.9673 126.814 91.8467 -58.9328 117.907 -154.318 41.5782 179.962 26.981 2.35616 3.82956 -70.5835 -4.34718 8.14463 19.0443 -1.833 -7.97699 
-305.707 76.7828 299.874 99.8617 36.4 75.7775 -177.049 -11.77 73.5191 -45.13 17.7035 3.72933 110.444 25.6258 17.4416 3.93095 -13.4814 9.4113 141.056 -17.7181 18.9245 74.9424 -5.10514 99.8028 19.6684 14.5941 -18.5339 48.6401 -16.5193 29.6358 0.17727 3.7929 -89.4274 19.2842 0.652469 1.03168 7.61303 0.697232 1.00196 -14.9193 0.31226 1.18005 5.09339 0.312255 1.18006 116.382 -18.8951 -47.5559 88.9183 -51.7092 42.3779 150.478 9.63491 -130.538 3.0198 -1.26743 -42.708 -64.5361 -20.212 126.926 91.1337 -58.9467 117.076 -154.643 41.8311 179.962 26.6405 2.31392 3.76716 -70.4818 -4.39709 8.23336 18.973 -1.84244 -7.99011 
-306.634 76.439 300.886 99.9255 36.6071 75.5495 -177.067 -10.2672 73.2839 -47.5543 17.6613 3.95885 112.368 28.2625 17.3052 0.101457 -14.8124 7.46869 142.137 -18.3245 17.9898 72.1598 -5.66615 101.315 20.1877 13.6455 -19.0333 49.6396 -17.1775 30.1245 0.157927 3.81346 -89.4593 19.2435 0.597443 0.978248 7.57233 0.639912 0.951003 -14.9602 0.275843 1.11256 5.05243 0.275837 1.11256 116.287 -18.551 -47.5604 89.0457 -52.0809 42.6573 149.552 9.62515 -129.97 3.17723 -1.3092 -42.3848 -64.2101 -20.9592 127.267 88.9617 -58.9174 114.564 -155.664 42.596 179.961 25.6096 2.18915 3.58158 -70.1678 -4.55066 8.50718 18.7576 -1.8739 -8.03597 
-308.087 75.9557 302.466 100.026 36.9352 75.1876 -177.075 -7.81645 72.9032 -51.38 17.3715 4.31944 115.392 31.7947 16.8501 -5.58239 -16.4005 4.22061 144.688 -18.7244 17.4656 68.415 -7.68235 104.905 21.7395 13.0205 -20.8637 51.3305 -18.3551 30.6329 0.126814 3.84642 -89.5099 19.1782 0.509408 0.893713 7.50709 0.548252 0.870424 -15.0258 0.217256 1.00548 4.98685 0.217286 1.00548 116.146 -18.0265 -47.5594 89.1891 -52.6691 43.062 148.116 9.60992 -129.118 3.4907 -1.39275 -41.8252 -63.6847 -22.1453 127.809 85.6663 -58.7858 110.762 -157.223 43.7821 179.96 23.9938 2.00241 3.29969 -69.663 -4.79995 8.95595 18.4209 -1.93008 -8.12382 
-310.002 75.3652 304.546 100.159 37.3696 74.7056 -177.061 -4.512 72.3708 -56.306 16.7064 4.79358 119.264 35.4978 15.9653 -12.4402 -17.6714 -0.197249 149.981 -17.6876 19.3053 64.3812 -13.3406 112.563 25.6031 13.2546 -25.585 53.8791 -20.3131 30.7054 0.0846904 3.89051 -89.5774 19.0909 0.39059 0.780829 7.41982 0.424595 0.762873 -15.1135 0.137877 0.862113 4.8991 0.137876 0.862106 115.972 -17.3588 -47.5469 89.2869 -53.4504 43.5383 146.256 9.58737 -128.062 4.0242 -1.53322 -41.0055 -62.9682 -23.7242 128.534 81.5152 -58.3689 106.018 -159.291 45.3214 179.959 21.8799 1.77319 2.94644 -68.9805 -5.14275 9.58322 17.98 -2.01437 -8.26575 
-312.38 74.4187 307.167 100.319 37.8953 74.1171 -176.881 -0.0110287 71.6661 -62.9854 15.4863 5.36266 124.236 38.8742 14.5336 -19.7297 -18.1904 -5.42496 158.233 -13.1123 27.0162 62.3016 -26.4006 127.604 34.0534 13.9158 -34.9579 57.6456 -23.6774 29.5455 0.0320603 3.94417 -89.6604 18.9844 0.243103 0.642039 7.31334 0.271135 0.630706 -15.2206 0.0389203 0.685418 4.79209 0.0389152 0.685416 115.774 -16.5834 -47.5178 89.2766 -54.4029 44.0303 144.059 9.55151 -126.878 4.85224 -1.74445 -39.9078 -62.0674 -25.6503 129.423 76.8984 -57.576 100.794 -161.76 47.1605 179.961 19.3609 1.52076 2.54911 -68.133 -5.57618 10.3955 17.4509 -2.12941 -8.4741 
-315.088 73.3809 310.148 100.502 38.4968 73.4361 -176.618 5.12984 70.7125 -70.1867 13.83 6.01178 129.352 41.4417 12.8944 -26.733 -17.7814 -10.9452 162.72 -7.07129 41.3672 72.6825 -44.2961 152.522 47.8501 15.5996 -49.8555 62.4902 -28.747 26.6297 -0.0302044 4.00599 -89.7572 18.8615 0.0694197 0.480047 7.19046 0.0904583 0.476526 -15.344 -0.0780653 0.478718 4.66865 -0.0780769 0.478721 115.565 -15.7352 -47.4672 89.0916 -55.5032 44.4745 141.616 9.49172 -125.634 6.05296 -2.034 -38.5264 -60.989 -27.8736 130.461 72.2061 -56.3664 95.5637 -164.523 49.2692 179.965 16.5413 1.26337 2.13844 -67.1324 -6.09416 11.3971 16.8496 -2.27648 -8.7596 
